<svg xmlns="http://www.w3.org/2000/svg" xmlns:xlink="http://www.w3.org/1999/xlink" width="500" zoomAndPan="magnify" viewBox="0 0 375 374.999991" height="500" preserveAspectRatio="xMidYMid meet" version="1.0"><defs><clipPath id="e820b9d0e7"><path d="M 48.210938 63.375 L 237.960938 63.375 L 237.960938 246 L 48.210938 246 Z M 48.210938 63.375 " clip-rule="nonzero"/></clipPath><clipPath id="c7fe440894"><path d="M 144 140 L 237.960938 140 L 237.960938 240 L 144 240 Z M 144 140 " clip-rule="nonzero"/></clipPath><clipPath id="4cd9d7a96d"><path d="M 123 109 L 334 109 L 334 321.84375 L 123 321.84375 Z M 123 109 " clip-rule="nonzero"/></clipPath><clipPath id="6708e26197"><path d="M 80 108.09375 L 291 108.09375 L 291 320 L 80 320 Z M 80 108.09375 " clip-rule="nonzero"/></clipPath></defs><g clip-path="url(#e820b9d0e7)"><path fill="#ffffff" d="M 79.851562 245.613281 C 78.03125 244.410156 77.03125 243.824219 76.113281 243.128906 C 67.714844 236.777344 59.269531 230.480469 51.015625 223.945312 C 49.671875 222.882812 48.425781 220.714844 48.417969 219.058594 C 48.285156 168.695312 48.3125 118.324219 48.316406 67.964844 C 48.316406 67.195312 48.476562 66.429688 48.636719 64.984375 C 50.703125 66.285156 52.382812 67.296875 54.019531 68.375 C 82.335938 86.988281 110.671875 105.558594 138.90625 124.28125 C 141.601562 126.074219 143.375 126.003906 146.019531 124.234375 C 175.066406 104.777344 204.207031 85.46875 233.328125 66.117188 C 234.542969 65.3125 235.773438 64.546875 237.601562 63.378906 C 237.726562 65.292969 237.886719 66.550781 237.886719 67.816406 C 237.914062 77.675781 237.832031 87.53125 237.964844 97.382812 C 238 99.828125 237.238281 101.3125 235.167969 102.652344 C 205.339844 121.902344 175.546875 141.207031 145.8125 160.609375 C 143.5625 162.074219 142.128906 161.695312 140.109375 160.347656 C 121.5625 148.011719 102.949219 135.777344 84.351562 123.519531 C 83.132812 122.722656 81.882812 121.96875 79.84375 120.695312 C 79.851562 162.515625 79.851562 203.652344 79.851562 245.613281 Z M 79.851562 245.613281 " fill-opacity="1" fill-rule="nonzero"/></g><g clip-path="url(#c7fe440894)"><path fill="#ffffff" d="M 237.886719 140.738281 C 237.886719 153.09375 238.007812 164.40625 237.734375 175.710938 C 237.699219 177.09375 235.820312 178.785156 234.394531 179.738281 C 206.59375 198.34375 178.730469 216.859375 150.882812 235.390625 C 149.015625 236.628906 147.136719 237.839844 144.507812 239.558594 C 144.507812 229.277344 144.921875 219.855469 144.359375 210.492188 C 143.988281 204.230469 146.113281 200.679688 151.429688 197.277344 C 178.570312 179.878906 205.40625 162.007812 232.351562 144.304688 C 233.902344 143.289062 235.46875 142.296875 237.886719 140.738281 Z M 237.886719 140.738281 " fill-opacity="1" fill-rule="nonzero"/></g><path fill="#ffffff" d="M 144.566406 321.769531 C 144.566406 309.214844 144.535156 297.636719 144.628906 286.058594 C 144.632812 285.148438 145.246094 283.882812 145.984375 283.382812 C 154.90625 277.386719 163.902344 271.503906 173.355469 265.285156 C 173.527344 266.871094 173.734375 267.863281 173.734375 268.855469 C 173.761719 279.09375 173.796875 289.335938 173.714844 299.574219 C 173.703125 300.78125 173.367188 302.53125 172.542969 303.097656 C 163.578125 309.246094 154.480469 315.199219 144.566406 321.769531 Z M 144.566406 321.769531 " fill-opacity="1" fill-rule="nonzero"/><g clip-path="url(#4cd9d7a96d)"><path fill="#f3bd3e" d="M 123.984375 321.695312 C 123.648438 305 128.761719 291.003906 137.417969 278.355469 C 148.71875 261.828125 163.386719 249.296875 179.6875 239.289062 C 198.800781 227.597656 218.363281 216.46875 238.261719 206.460938 C 271.257812 189.878906 291.378906 163.011719 298.40625 124.507812 C 298.519531 123.945312 298.628906 123.382812 299.304688 122.820312 C 299.585938 126.25 299.980469 129.734375 300.035156 133.164062 C 300.09375 136.648438 299.980469 140.191406 299.699219 143.675781 C 299.417969 147.328125 299.136719 150.925781 298.519531 154.523438 C 294.863281 177.121094 287.164062 197.75 272.4375 214.667969 C 262.429688 226.191406 250.121094 234.457031 237.640625 242.4375 C 226.738281 249.464844 215.609375 256.152344 205.097656 263.855469 C 199.25 268.125 194.359375 273.972656 189.1875 279.3125 C 187.785156 280.773438 186.941406 282.851562 185.589844 285.101562 C 187.164062 285.214844 188.175781 285.382812 189.1875 285.382812 C 203.523438 285.101562 217.914062 285.550781 232.132812 284.3125 C 264.792969 281.558594 287.445312 261.660156 303.183594 232.152344 C 323.417969 194.488281 326.285156 154.242188 315.382812 112.589844 C 315.15625 111.804688 314.988281 111.015625 314.820312 110.175781 C 315.269531 109.949219 315.71875 109.78125 316.167969 109.554688 C 319.765625 118.269531 324.148438 126.699219 326.847656 135.695312 C 337.414062 170.824219 334.828125 205.339844 321.339844 239.007812 C 311.222656 264.359375 295.765625 285.269531 274.574219 300.953125 C 256.472656 314.332031 236.460938 321.527344 214.484375 321.636719 C 186.039062 321.75 157.65625 321.695312 129.210938 321.695312 C 127.636719 321.695312 126.007812 321.695312 123.984375 321.695312 Z M 123.984375 321.695312 " fill-opacity="1" fill-rule="nonzero"/></g><g clip-path="url(#6708e26197)"><path fill="#f3bd3e" d="M 115.273438 306.011719 C 112.515625 286.5625 115.382812 267.84375 121.679688 249.519531 C 129.941406 225.460938 145.007812 207.753906 165.019531 194.601562 C 176.992188 186.675781 189.246094 179.199219 201.21875 171.273438 C 210.324219 165.261719 219.09375 158.628906 225.5 149.015625 C 226.398438 147.667969 227.1875 146.148438 228.367188 144.125 C 205.882812 144.460938 184.015625 141.988281 162.824219 149.015625 C 147.03125 154.242188 134.160156 164.585938 123.421875 177.90625 C 105.492188 200.054688 96.160156 226.25 93.125 255.253906 C 90.933594 276.277344 92.898438 296.90625 98.519531 317.140625 C 98.691406 317.703125 98.691406 318.265625 98.800781 318.828125 C 98.464844 318.996094 98.128906 319.164062 97.789062 319.332031 C 95.09375 313.542969 91.886719 307.980469 89.808594 301.964844 C 72.160156 250.980469 79.859375 203.707031 108.921875 160.3125 C 126.90625 133.445312 151.078125 115.851562 181.769531 109.722656 C 185.871094 108.882812 190.089844 108.261719 194.246094 108.207031 C 225.105469 108.09375 255.964844 108.152344 286.769531 108.152344 C 287.558594 108.152344 288.34375 108.261719 290.367188 108.375 C 289.355469 115.007812 288.960938 121.527344 287.332031 127.65625 C 282.722656 145.472656 271.988281 158.910156 259.339844 170.710938 C 241.183594 187.6875 220.21875 199.773438 198.855469 211.183594 C 188.175781 216.863281 177.382812 222.144531 166.816406 228.160156 C 138.316406 244.347656 122.015625 270.207031 115.664062 303.933594 C 115.609375 304.605469 115.382812 305.335938 115.273438 306.011719 Z M 115.273438 306.011719 " fill-opacity="1" fill-rule="nonzero"/></g></svg>