<svg xmlns="http://www.w3.org/2000/svg" xmlns:xlink="http://www.w3.org/1999/xlink" width="48" zoomAndPan="magnify" viewBox="0 0 36 36.000001" height="48" preserveAspectRatio="xMidYMid meet" version="1.0"><defs><clipPath id="b6ec32f181"><path d="M 7.476562 8.140625 L 21.339844 8.140625 L 21.339844 22 L 7.476562 22 Z M 7.476562 8.140625 " clip-rule="nonzero"/></clipPath><clipPath id="72b5ee4fdc"><path d="M 14 13 L 21.339844 13 L 21.339844 22 L 14 22 Z M 14 13 " clip-rule="nonzero"/></clipPath><clipPath id="846d60562a"><path d="M 14 23 L 17 23 L 17 27.113281 L 14 27.113281 Z M 14 23 " clip-rule="nonzero"/></clipPath><clipPath id="13b531f5ed"><path d="M 12 12.703125 L 28.648438 12.703125 L 28.648438 28.757812 L 12 28.757812 Z M 12 12.703125 " clip-rule="nonzero"/></clipPath><clipPath id="42b9795503"><path d="M 9 12.703125 L 26 12.703125 L 26 28.757812 L 9 28.757812 Z M 9 12.703125 " clip-rule="nonzero"/></clipPath></defs><g clip-path="url(#b6ec32f181)"><path fill="#991313" d="M 9.8125 21.570312 C 9.675781 21.480469 9.605469 21.4375 9.535156 21.386719 C 8.917969 20.917969 8.292969 20.457031 7.6875 19.972656 C 7.585938 19.894531 7.496094 19.734375 7.496094 19.613281 C 7.484375 15.902344 7.488281 12.191406 7.488281 8.480469 C 7.488281 8.421875 7.5 8.367188 7.511719 8.257812 C 7.664062 8.355469 7.785156 8.429688 7.90625 8.507812 C 9.996094 9.878906 12.082031 11.25 14.164062 12.628906 C 14.363281 12.761719 14.492188 12.757812 14.6875 12.625 C 16.828125 11.191406 18.976562 9.769531 21.121094 8.34375 C 21.210938 8.285156 21.300781 8.226562 21.4375 8.140625 C 21.445312 8.28125 21.457031 8.375 21.457031 8.46875 C 21.460938 9.195312 21.453125 9.921875 21.464844 10.648438 C 21.464844 10.828125 21.410156 10.9375 21.257812 11.035156 C 19.058594 12.453125 16.863281 13.875 14.671875 15.304688 C 14.507812 15.414062 14.402344 15.386719 14.253906 15.289062 C 12.886719 14.378906 11.515625 13.476562 10.144531 12.574219 C 10.054688 12.515625 9.960938 12.457031 9.8125 12.363281 C 9.8125 15.445312 9.8125 18.480469 9.8125 21.570312 Z M 9.8125 21.570312 " fill-opacity="1" fill-rule="nonzero"/></g><g clip-path="url(#72b5ee4fdc)"><path fill="#991313" d="M 21.457031 13.84375 C 21.457031 14.753906 21.46875 15.585938 21.445312 16.417969 C 21.445312 16.519531 21.304688 16.644531 21.199219 16.714844 C 19.152344 18.085938 17.097656 19.453125 15.046875 20.816406 C 14.910156 20.910156 14.769531 21 14.578125 21.125 C 14.578125 20.367188 14.605469 19.671875 14.566406 18.984375 C 14.539062 18.519531 14.695312 18.257812 15.085938 18.007812 C 17.085938 16.726562 19.066406 15.410156 21.050781 14.105469 C 21.164062 14.03125 21.28125 13.957031 21.457031 13.84375 Z M 21.457031 13.84375 " fill-opacity="1" fill-rule="nonzero"/></g><g clip-path="url(#846d60562a)"><path fill="#991313" d="M 14.582031 27.183594 C 14.582031 26.257812 14.578125 25.40625 14.585938 24.550781 C 14.585938 24.484375 14.632812 24.390625 14.683594 24.355469 C 15.34375 23.914062 16.007812 23.480469 16.703125 23.019531 C 16.714844 23.136719 16.730469 23.210938 16.730469 23.285156 C 16.730469 24.039062 16.734375 24.792969 16.730469 25.546875 C 16.726562 25.636719 16.703125 25.765625 16.640625 25.808594 C 15.980469 26.261719 15.3125 26.699219 14.582031 27.183594 Z M 14.582031 27.183594 " fill-opacity="1" fill-rule="nonzero"/></g><g clip-path="url(#13b531f5ed)"><path fill="#f3bd3e" d="M 12.773438 28.445312 C 12.746094 27.214844 13.125 26.183594 13.761719 25.253906 C 14.59375 24.035156 15.675781 23.109375 16.878906 22.375 C 18.285156 21.511719 19.726562 20.691406 21.195312 19.953125 C 23.625 18.734375 25.109375 16.753906 25.628906 13.914062 C 25.636719 13.875 25.644531 13.832031 25.695312 13.789062 C 25.714844 14.042969 25.742188 14.300781 25.746094 14.550781 C 25.75 14.808594 25.742188 15.070312 25.722656 15.328125 C 25.703125 15.597656 25.679688 15.863281 25.636719 16.125 C 25.367188 17.792969 24.796875 19.3125 23.714844 20.558594 C 22.976562 21.410156 22.070312 22.015625 21.148438 22.605469 C 20.34375 23.125 19.523438 23.617188 18.75 24.183594 C 18.320312 24.5 17.960938 24.929688 17.578125 25.324219 C 17.472656 25.429688 17.414062 25.585938 17.3125 25.75 C 17.429688 25.757812 17.503906 25.769531 17.578125 25.769531 C 18.632812 25.75 19.695312 25.785156 20.742188 25.691406 C 23.148438 25.488281 24.820312 24.023438 25.980469 21.847656 C 27.472656 19.070312 27.683594 16.105469 26.878906 13.035156 C 26.863281 12.976562 26.847656 12.921875 26.835938 12.859375 C 26.871094 12.839844 26.902344 12.828125 26.9375 12.8125 C 27.203125 13.453125 27.523438 14.074219 27.722656 14.738281 C 28.503906 17.328125 28.3125 19.871094 27.316406 22.351562 C 26.570312 24.222656 25.433594 25.761719 23.871094 26.917969 C 22.535156 27.902344 21.0625 28.433594 19.441406 28.441406 C 17.347656 28.449219 15.253906 28.445312 13.15625 28.445312 C 13.042969 28.445312 12.921875 28.445312 12.773438 28.445312 Z M 12.773438 28.445312 " fill-opacity="1" fill-rule="nonzero"/></g><g clip-path="url(#42b9795503)"><path fill="#f3bd3e" d="M 12.128906 27.292969 C 11.925781 25.859375 12.140625 24.476562 12.601562 23.128906 C 13.210938 21.355469 14.320312 20.050781 15.796875 19.082031 C 16.679688 18.496094 17.582031 17.945312 18.464844 17.359375 C 19.136719 16.917969 19.78125 16.429688 20.253906 15.722656 C 20.320312 15.621094 20.378906 15.507812 20.464844 15.359375 C 18.808594 15.386719 17.195312 15.203125 15.636719 15.722656 C 14.472656 16.105469 13.523438 16.867188 12.730469 17.851562 C 11.410156 19.480469 10.722656 21.414062 10.5 23.550781 C 10.335938 25.101562 10.480469 26.621094 10.894531 28.113281 C 10.910156 28.152344 10.910156 28.195312 10.917969 28.234375 C 10.890625 28.25 10.867188 28.261719 10.84375 28.273438 C 10.644531 27.847656 10.40625 27.4375 10.253906 26.992188 C 8.953125 23.234375 9.519531 19.75 11.664062 16.554688 C 12.988281 14.574219 14.769531 13.277344 17.03125 12.824219 C 17.332031 12.761719 17.644531 12.71875 17.949219 12.714844 C 20.226562 12.703125 22.5 12.710938 24.769531 12.710938 C 24.828125 12.710938 24.886719 12.71875 25.035156 12.726562 C 24.960938 13.214844 24.929688 13.695312 24.8125 14.148438 C 24.472656 15.460938 23.679688 16.449219 22.75 17.320312 C 21.410156 18.570312 19.863281 19.460938 18.289062 20.300781 C 17.503906 20.722656 16.707031 21.109375 15.929688 21.554688 C 13.828125 22.746094 12.628906 24.652344 12.160156 27.136719 C 12.15625 27.1875 12.140625 27.242188 12.128906 27.292969 Z M 12.128906 27.292969 " fill-opacity="1" fill-rule="nonzero"/></g></svg>